# xmcd CD database file
#
# Track frame offsets:
#	150
#	10202
#	19411
#	29379
#	42167
#	55785
#	65415
#	75290
#	85415
#	94902
#	104664
#	115948
#	126875
#	137224
#	146508
#
# Disc length: 2071 seconds
#
# Revision: 1
# Processed by: cddbd v1.5.2PL0 Copyright (c) Steve Scherf et al.
# Submitted via: CDex 1.70beta2
#
DISCID=cb08150f
DTITLE=Mickey Keller and the Spitfires - That's Wild  (DemoCD)
DYEAR=2010
DGENRE=Rockabilly
TTITLE0=Waitin' For You To Call
TTITLE1=Great Balls Of Fire
TTITLE2=Morsecode
TTITLE3=They Call Me Bad
TTITLE4=Bony Moronie
TTITLE5=Black Smoke And Blue Tear
TTITLE6=7 Nights To Rock
TTITLE7=True Blue
TTITLE8=Sugar Sugar
TTITLE9=Got The Bull By Horns
TTITLE10=That's Wild
TTITLE11=What Am I Living For
TTITLE12=Got A Lot Of Rhythm In My Soul
TTITLE13=Why Did It Happen To Me
TTITLE14=Teenage Cutie
EXTD=YEAR: 2010
EXTT0=
EXTT1=
EXTT2=
EXTT3=
EXTT4=
EXTT5=
EXTT6=
EXTT7=
EXTT8=
EXTT9=
EXTT10=
EXTT11=
EXTT12=
EXTT13=
EXTT14=
PLAYORDER=
